<?xml version="1.0" encoding="UTF-8" ?>
<!DOCTYPE svg PUBLIC "-//W3C//DTD SVG 1.1//EN" "http://www.w3.org/Graphics/SVG/1.1/DTD/svg11.dtd">
<svg width="153pt" height="119pt" viewBox="0 0 153 119" version="1.1" xmlns="http://www.w3.org/2000/svg">
<path fill="#ffffff" d=" M 0.00 0.00 L 153.00 0.00 L 153.00 119.00 L 0.00 119.00 L 0.00 0.00 Z" />
<path fill="#ea1d90" d=" M 62.19 5.84 C 65.79 18.93 71.38 31.32 76.70 43.75 C 71.46 41.27 66.57 38.09 61.25 35.75 C 54.94 32.70 48.25 30.61 41.69 28.17 C 48.03 27.67 55.21 29.57 60.86 25.91 C 64.57 19.95 61.81 12.45 62.19 5.84 Z" />
<path fill="#f26f2a" d=" M 83.20 33.26 C 87.66 24.88 91.01 15.97 93.74 6.89 C 93.81 13.05 92.62 19.45 94.55 25.44 C 95.23 27.83 97.69 28.95 99.98 29.21 C 106.01 29.97 112.03 28.68 118.04 28.22 C 104.12 31.80 90.94 37.62 77.79 43.29 C 79.41 39.85 81.40 36.61 83.20 33.26 Z" />
<path fill="#e81e8e" d=" M 53.46 17.37 C 55.56 16.54 58.46 17.68 58.58 20.15 C 59.18 22.85 55.69 25.21 53.40 23.74 C 50.76 22.61 50.93 18.54 53.46 17.37 Z" />
<path fill="#f0702a" d=" M 100.34 18.30 C 102.56 17.64 104.89 19.67 104.61 21.95 C 104.77 25.25 99.64 26.53 98.15 23.60 C 96.65 21.70 98.00 18.63 100.34 18.30 Z" />
<path fill="#35abe2" d=" M 36.96 59.81 C 50.46 55.94 63.38 50.43 76.22 44.84 C 69.80 56.42 63.87 68.33 60.24 81.13 C 60.24 75.21 61.23 69.13 59.67 63.33 C 59.14 61.06 57.13 59.44 54.86 59.11 C 48.91 58.03 42.91 59.43 36.96 59.81 Z" />
<path fill="#55b84c" d=" M 77.64 44.68 C 89.58 51.17 101.81 57.35 115.05 60.72 C 108.53 60.60 101.75 59.38 95.40 61.40 C 92.93 62.05 92.03 64.72 91.74 66.98 C 91.09 72.67 92.22 78.35 92.78 83.99 C 88.82 70.49 83.26 57.55 77.64 44.68 Z" />
<path fill="#36abe2" d=" M 51.38 63.27 C 53.74 61.84 57.02 64.26 56.44 66.95 C 56.27 69.89 51.98 70.89 50.25 68.73 C 48.65 67.17 49.26 64.06 51.38 63.27 Z" />
<path fill="#56b74c" d=" M 98.45 64.42 C 100.93 63.71 103.47 66.24 102.71 68.73 C 102.41 71.81 97.41 72.34 96.24 69.60 C 95.05 67.72 96.18 64.76 98.45 64.42 Z" />
<path fill="#a4a4a6" d=" M 34.89 94.96 C 38.41 94.92 42.21 94.36 45.35 96.34 C 42.49 96.75 39.60 96.81 36.72 96.97 C 36.68 98.91 36.68 100.84 36.73 102.78 C 39.29 102.90 41.86 102.98 44.40 103.41 C 42.02 104.59 39.36 104.81 36.76 105.03 C 36.70 106.97 36.68 108.93 36.70 110.88 C 39.58 111.00 42.46 110.94 45.34 111.15 C 45.12 112.50 44.35 113.12 43.02 113.01 C 40.32 113.15 37.63 113.02 34.93 112.93 C 34.60 106.94 34.64 100.95 34.89 94.96 Z" />
<path fill="#9c9b9d" d=" M 103.15 94.55 C 106.00 96.16 107.93 98.84 109.96 101.31 C 111.79 98.85 113.61 96.31 116.22 94.61 C 115.00 97.71 113.07 100.45 111.11 103.13 C 113.31 106.42 116.04 109.45 117.30 113.27 C 114.16 111.16 112.14 107.90 109.88 104.95 C 107.72 107.92 105.81 111.19 102.73 113.33 C 104.09 109.60 106.62 106.50 108.74 103.19 C 106.71 100.42 104.65 97.65 103.15 94.55 Z" />
<path fill="#a1a1a3" d=" M 84.96 111.03 C 84.21 106.08 82.52 100.69 85.09 95.98 C 86.05 97.75 87.20 99.42 88.84 100.63 C 87.92 101.19 86.99 101.73 86.07 102.27 C 86.07 104.70 85.86 107.17 86.32 109.57 C 87.33 110.76 88.51 111.79 89.60 112.90 C 87.91 112.86 85.36 113.30 84.96 111.03 Z" />
<path fill="#a0a0a1" d=" M 44.93 99.44 C 48.13 101.78 49.07 105.83 50.92 109.13 C 52.90 105.88 53.60 101.58 57.01 99.44 C 55.70 104.16 53.30 108.48 50.94 112.74 C 48.46 108.55 46.13 104.20 44.93 99.44 Z" />
<path fill="#9c9c9e" d=" M 57.79 109.13 C 55.86 105.24 58.65 99.97 63.05 99.66 C 65.66 99.03 67.89 100.65 69.84 102.13 C 66.65 105.02 62.23 106.31 59.54 109.75 C 62.69 111.77 66.32 110.86 69.74 110.31 C 66.90 114.53 59.71 113.82 57.79 109.13 Z" />
<path fill="#9d9d9e" d=" M 71.05 100.30 C 74.23 100.34 78.46 98.32 80.78 101.37 C 81.77 105.30 82.22 109.81 80.36 113.56 C 79.78 109.38 80.20 105.05 78.83 101.00 C 77.01 101.20 74.64 100.68 73.49 102.52 C 72.64 105.25 73.09 108.18 72.83 110.99 C 72.94 112.19 72.40 112.95 71.21 113.27 C 70.88 108.96 70.94 104.62 71.05 100.30 Z" />
<path fill="#9c9c9e" d=" M 91.11 109.83 C 88.49 105.96 91.26 99.92 96.00 99.65 C 98.60 99.08 100.85 100.59 102.78 102.12 C 99.92 104.64 96.38 106.16 93.34 108.40 C 92.08 110.24 94.76 110.79 96.08 111.12 C 98.30 111.10 100.48 110.57 102.68 110.33 C 99.99 114.24 93.42 114.00 91.11 109.83 Z" />
<path fill="#f4f4f5" d=" M 61.75 101.69 C 63.49 100.44 65.56 101.53 67.37 101.97 C 64.72 104.04 61.81 105.76 58.72 107.07 C 59.25 105.08 59.58 102.59 61.75 101.69 Z" />
<path fill="#f4f4f4" d=" M 94.73 101.66 C 96.48 100.45 98.53 101.53 100.34 101.98 C 97.69 104.05 94.77 105.76 91.67 107.06 C 92.22 105.07 92.55 102.56 94.73 101.66 Z" />
</svg>
